<svg width="288" height="112" viewBox="0 0 288 112" fill="none" xmlns="http://www.w3.org/2000/svg">
<mask id="mask0_1071:174" style="mask-type:alpha" maskUnits="userSpaceOnUse" x="0" y="0" width="288" height="112">
<rect width="288" height="112" fill="#EFEFEF"/>
</mask>
<g mask="url(#mask0_1071:174)">
<path d="M67.9685 60.6957L73.7473 44.1728C74.4322 42.2608 74.7746 40.8339 74.7746 39.8922C74.7746 39.0076 74.4607 38.4368 73.8329 38.18C73.2336 37.8946 72.2919 37.7519 71.0077 37.7519V36.0397H83.1645V37.7519C82.0801 37.7519 81.0956 38.023 80.2109 38.5653C79.3548 39.0789 78.6985 39.9636 78.2419 41.2192L67.9257 69.4281H64.116L56.6679 46.8267L48.1924 69.4281H44.6395L35.5647 44.4296C35.0225 42.9742 34.5231 41.8042 34.0665 40.9196C33.6099 40.0349 33.1248 39.3643 32.6111 38.9077C32.0975 38.4511 31.541 38.1515 30.9417 38.0088C30.3424 37.8661 29.629 37.7948 28.8014 37.7948V36.0397H44.9819V37.7948C43.5266 37.7948 42.5278 37.9374 41.9856 38.2228C41.4434 38.4796 41.1722 38.922 41.1722 39.5498C41.1722 39.7781 41.1865 40.0064 41.2151 40.2347C41.2436 40.4344 41.3007 40.677 41.3863 40.9624C41.4719 41.2192 41.5718 41.5474 41.6859 41.9469C41.8286 42.3464 42.0141 42.8458 42.2424 43.4451L48.2352 60.6957L55.1697 41.7757C54.8843 41.0052 54.5989 40.3774 54.3136 39.8922C54.0282 39.4071 53.6857 39.0218 53.2862 38.7365C52.9152 38.4511 52.4872 38.2513 52.0021 38.1372C51.5169 37.9945 50.9319 37.8804 50.247 37.7948V36.0397H65.3574V37.7948C64.1588 37.7948 63.2742 37.9517 62.7034 38.2656C62.1327 38.551 61.8473 39.1217 61.8473 39.9778C61.8473 40.4059 61.9044 40.9053 62.0186 41.476C62.1612 42.0468 62.3467 42.7031 62.575 43.4451L67.9685 60.6957ZM102.144 65.0191C99.5472 67.9584 96.3083 69.4281 92.4272 69.4281C90.6579 69.4281 89.0456 69.157 87.5902 68.6147C86.1633 68.044 84.9362 67.2592 83.9089 66.2604C82.8816 65.2331 82.0825 64.0203 81.5118 62.622C80.9411 61.2237 80.6557 59.6684 80.6557 57.9562C80.6557 56.1869 80.9553 54.5745 81.5546 53.1191C82.1539 51.6352 82.9957 50.3653 84.0801 49.3094C85.1931 48.225 86.4915 47.3832 87.9754 46.7839C89.4879 46.1846 91.1431 45.885 92.9409 45.885C95.9658 45.885 98.3201 46.6983 100.004 48.3249C101.687 49.9515 102.529 52.2345 102.529 55.1738C102.529 55.6304 102.458 55.9158 102.315 56.0299C102.173 56.1155 101.773 56.1583 101.117 56.1583H87.3334C87.2192 56.4152 87.1621 56.886 87.1621 57.5709C87.1621 60.3675 87.7614 62.5792 88.96 64.2058C90.1871 65.8324 91.8422 66.6457 93.9254 66.6457C95.124 66.6457 96.3083 66.3746 97.4783 65.8324C98.6768 65.2902 99.8326 64.5197 100.946 63.5209L102.144 65.0191ZM93.8398 53.7612C94.9813 53.7612 95.709 53.7041 96.0229 53.59C96.3653 53.4473 96.5366 53.1334 96.5366 52.6483C96.5366 51.3926 96.1798 50.3653 95.4664 49.5663C94.753 48.7672 93.8541 48.3677 92.7697 48.3677C91.5426 48.3677 90.4439 48.8814 89.4736 49.9087C88.5319 50.9075 87.9184 52.1917 87.633 53.7612H93.8398ZM107.493 69H106.166V61.2094H107.964C108.449 63.2641 109.148 64.7622 110.061 65.704C110.975 66.6457 112.159 67.1166 113.614 67.1166C114.67 67.1166 115.483 66.9025 116.054 66.4745C116.653 66.0179 116.953 65.4043 116.953 64.6338C116.953 63.8348 116.596 63.0643 115.883 62.3223C115.17 61.5518 114.014 60.7385 112.416 59.8824C110.247 58.7124 108.692 57.5566 107.75 56.4152C106.808 55.2451 106.337 53.9324 106.337 52.4771C106.337 51.5353 106.509 50.665 106.851 49.8659C107.222 49.0383 107.707 48.3249 108.306 47.7256C108.934 47.1264 109.676 46.6698 110.532 46.3559C111.388 46.0134 112.316 45.8422 113.315 45.8422C114.199 45.8422 115.07 45.9706 115.926 46.2274C116.81 46.4843 117.581 46.841 118.237 47.2976L119.008 46.2703H120.121V52.7339H118.451C117.795 51.1073 117.11 49.9373 116.397 49.2238C115.712 48.5104 114.87 48.1537 113.871 48.1537C113.072 48.1537 112.43 48.3677 111.945 48.7958C111.488 49.2238 111.26 49.7946 111.26 50.508C111.26 51.307 111.602 52.0633 112.287 52.7767C113.001 53.4901 114.171 54.2749 115.797 55.131C116.939 55.7588 117.923 56.3724 118.751 56.9716C119.579 57.5709 120.249 58.1845 120.763 58.8123C121.276 59.4116 121.647 60.0536 121.876 60.7385C122.133 61.3949 122.261 62.1083 122.261 62.8788C122.261 63.8776 122.076 64.7765 121.705 65.5756C121.334 66.3746 120.806 67.0595 120.121 67.6302C119.436 68.201 118.608 68.6433 117.638 68.9572C116.696 69.2711 115.64 69.4281 114.47 69.4281C113.243 69.4281 112.102 69.2711 111.046 68.9572C109.99 68.6148 109.12 68.1296 108.435 67.5018L107.493 69ZM124.65 48.6674V46.7411C126.363 46.256 127.79 45.5283 128.931 44.558C130.101 43.5592 130.971 42.4178 131.542 41.1336H133.725V46.3131H138.648V48.6674H133.725V61.8087C133.725 63.578 133.911 64.8336 134.282 65.5756C134.681 66.3175 135.338 66.6885 136.251 66.6885C137.364 66.6885 138.206 66.1748 138.776 65.1475L139.675 66.3889C138.876 68.415 136.993 69.4281 134.025 69.4281C132.056 69.4281 130.515 68.9715 129.402 68.0583C128.317 67.1451 127.775 65.8609 127.775 64.2058V48.6674H124.65ZM149.342 59.6256C149.342 60.6815 149.485 61.666 149.77 62.5792C150.084 63.4638 150.498 64.2343 151.012 64.8907C151.525 65.547 152.139 66.0607 152.852 66.4317C153.566 66.8026 154.35 66.9881 155.207 66.9881C156.919 66.9881 158.217 66.2034 159.102 64.6338C159.987 63.0643 160.429 60.7528 160.429 57.6993C160.429 54.7315 159.987 52.4771 159.102 50.9361C158.246 49.3665 156.947 48.5817 155.207 48.5817C154.179 48.5817 153.223 48.8671 152.339 49.4379C151.482 49.9801 150.812 50.7506 150.327 51.7494C149.67 53.1191 149.342 54.8456 149.342 56.9288V59.6256ZM149.257 49.2666H149.428C150.17 48.1822 151.126 47.3547 152.296 46.7839C153.466 46.1846 154.793 45.885 156.277 45.885C157.789 45.885 159.187 46.1989 160.472 46.8267C161.784 47.426 162.912 48.2536 163.853 49.3094C164.824 50.3653 165.58 51.6067 166.122 53.0335C166.664 54.4604 166.935 55.9871 166.935 57.6137C166.935 59.3259 166.636 60.9097 166.036 62.3651C165.466 63.792 164.667 65.0334 163.639 66.0892C162.64 67.1451 161.456 67.9727 160.086 68.5719C158.745 69.1712 157.318 69.4709 155.806 69.4709C154.236 69.4709 152.752 69.1712 151.354 68.5719C149.984 67.9441 148.886 67.1308 148.058 66.132L144.805 69H143.349V43.5307C143.349 40.8482 143.164 39.0076 142.793 38.0088C142.707 37.809 142.607 37.6378 142.493 37.4951C142.379 37.3524 142.208 37.2383 141.98 37.1527C141.78 37.0385 141.495 36.9529 141.124 36.8958C140.753 36.8102 140.267 36.7246 139.668 36.639V35.1836L149.257 33.4714V49.2666ZM188.245 53.3332C188.245 52.1917 188.217 51.2928 188.16 50.6364C188.102 49.9515 187.945 49.4379 187.689 49.0954C187.432 48.7244 187.047 48.4819 186.533 48.3677C186.048 48.225 185.377 48.1109 184.521 48.0253V46.3131H194.195V59.2831C194.195 61.0239 194.209 62.3937 194.238 63.3925C194.295 64.3627 194.381 65.0904 194.495 65.5756C194.58 65.9465 194.68 66.2462 194.794 66.4745C194.909 66.6742 195.094 66.8455 195.351 66.9881C195.608 67.1023 195.95 67.1879 196.378 67.245C196.835 67.2735 197.42 67.2878 198.133 67.2878V68.9572L189.615 69.4709L189.144 65.6612H188.973C188.231 66.8597 187.189 67.7872 185.848 68.4435C184.507 69.0999 183.009 69.4281 181.353 69.4281C178.3 69.4281 175.974 68.3436 174.376 66.1748C173.149 64.5197 172.535 62.1654 172.535 59.1119V53.3332C172.535 52.1631 172.507 51.25 172.45 50.5936C172.393 49.9087 172.236 49.3951 171.979 49.0526C171.751 48.7102 171.394 48.4819 170.909 48.3677C170.424 48.225 169.753 48.1109 168.897 48.0253V46.3131H178.485V58.427C178.485 61.3093 178.842 63.4067 179.556 64.7194C180.269 66.0036 181.41 66.6457 182.98 66.6457C184.664 66.6457 185.962 65.8752 186.875 64.3342C187.789 62.8503 188.245 60.6672 188.245 57.7849V53.3332ZM209.519 62.3651C209.519 63.4781 209.562 64.3627 209.647 65.0191C209.761 65.6469 209.975 66.132 210.289 66.4745C210.603 66.8169 211.06 67.0452 211.659 67.1594C212.258 67.245 213.057 67.2878 214.056 67.2878V69H199.759V67.2878C200.615 67.2307 201.3 67.1451 201.814 67.0309C202.327 66.9168 202.713 66.6885 202.97 66.3461C203.226 66.0036 203.383 65.5185 203.44 64.8907C203.526 64.2343 203.569 63.3639 203.569 62.2795V57.0572C203.569 55.288 203.526 53.8754 203.44 52.8195C203.355 51.7636 203.169 50.9503 202.884 50.3796C202.599 49.8088 202.185 49.4379 201.643 49.2666C201.129 49.0669 200.444 48.967 199.588 48.967V47.4688L208.149 45.885L208.834 50.8076H209.005C209.776 49.2952 210.789 48.0966 212.044 47.212C213.3 46.3273 214.627 45.885 216.025 45.885C217.11 45.885 217.994 46.1561 218.679 46.6983C219.364 47.2405 219.707 47.9254 219.707 48.753C219.707 49.6662 219.435 50.4367 218.893 51.0645C218.38 51.6923 217.666 52.0062 216.753 52.0062C216.325 52.0062 215.94 51.9206 215.597 51.7494C215.255 51.5781 214.941 51.3926 214.655 51.1929C214.399 50.9646 214.128 50.7648 213.842 50.5936C213.585 50.3939 213.314 50.294 213.029 50.294C212.487 50.294 211.973 50.6507 211.488 51.3641C211.003 52.0775 210.603 53.0335 210.289 54.2321C210.061 55.0882 209.876 56.0585 209.733 57.1429C209.59 58.1987 209.519 59.2546 209.519 60.3105V62.3651ZM230.624 62.3651C230.624 63.4781 230.667 64.3627 230.752 65.0191C230.867 65.6469 231.081 66.132 231.394 66.4745C231.708 66.8169 232.165 67.0452 232.764 67.1594C233.363 67.245 234.163 67.2878 235.161 67.2878V69H220.864V67.2878C221.72 67.2307 222.405 67.1451 222.919 67.0309C223.433 66.9168 223.818 66.6885 224.075 66.3461C224.332 66.0036 224.488 65.5185 224.546 64.8907C224.631 64.2343 224.674 63.3639 224.674 62.2795V57.0572C224.674 55.288 224.631 53.8754 224.546 52.8195C224.46 51.7636 224.274 50.9503 223.989 50.3796C223.704 49.8088 223.29 49.4379 222.748 49.2666C222.234 49.0669 221.549 48.967 220.693 48.967V47.4688L229.254 45.885L229.939 50.8076H230.11C230.881 49.2952 231.894 48.0966 233.149 47.212C234.405 46.3273 235.732 45.885 237.13 45.885C238.215 45.885 239.099 46.1561 239.784 46.6983C240.469 47.2405 240.812 47.9254 240.812 48.753C240.812 49.6662 240.541 50.4367 239.998 51.0645C239.485 51.6923 238.771 52.0062 237.858 52.0062C237.43 52.0062 237.045 51.9206 236.702 51.7494C236.36 51.5781 236.046 51.3926 235.761 51.1929C235.504 50.9646 235.233 50.7648 234.947 50.5936C234.69 50.3939 234.419 50.294 234.134 50.294C233.592 50.294 233.078 50.6507 232.593 51.3641C232.108 52.0775 231.708 53.0335 231.394 54.2321C231.166 55.0882 230.981 56.0585 230.838 57.1429C230.695 58.1987 230.624 59.2546 230.624 60.3105V62.3651Z" fill="#2B2C32"/>
<path d="M67.9685 60.6957L73.7473 44.1728C74.4322 42.2608 74.7746 40.8339 74.7746 39.8922C74.7746 39.0076 74.4607 38.4368 73.8329 38.18C73.2336 37.8946 72.2919 37.7519 71.0077 37.7519V36.0397H83.1645V37.7519C82.0801 37.7519 81.0956 38.023 80.2109 38.5653C79.3548 39.0789 78.6985 39.9636 78.2419 41.2192L67.9257 69.4281H64.116L56.6679 46.8267L48.1924 69.4281H44.6395L35.5647 44.4296C35.0225 42.9742 34.5231 41.8042 34.0665 40.9196C33.6099 40.0349 33.1248 39.3643 32.6111 38.9077C32.0975 38.4511 31.541 38.1515 30.9417 38.0088C30.3424 37.8661 29.629 37.7948 28.8014 37.7948V36.0397H44.9819V37.7948C43.5266 37.7948 42.5278 37.9374 41.9856 38.2228C41.4434 38.4796 41.1722 38.922 41.1722 39.5498C41.1722 39.7781 41.1865 40.0064 41.2151 40.2347C41.2436 40.4344 41.3007 40.677 41.3863 40.9624C41.4719 41.2192 41.5718 41.5474 41.6859 41.9469C41.8286 42.3464 42.0141 42.8458 42.2424 43.4451L48.2352 60.6957L55.1697 41.7757C54.8843 41.0052 54.5989 40.3774 54.3136 39.8922C54.0282 39.4071 53.6857 39.0218 53.2862 38.7365C52.9152 38.4511 52.4872 38.2513 52.0021 38.1372C51.5169 37.9945 50.9319 37.8804 50.247 37.7948V36.0397H65.3574V37.7948C64.1588 37.7948 63.2742 37.9517 62.7034 38.2656C62.1327 38.551 61.8473 39.1217 61.8473 39.9778C61.8473 40.4059 61.9044 40.9053 62.0186 41.476C62.1612 42.0468 62.3467 42.7031 62.575 43.4451L67.9685 60.6957ZM102.144 65.0191C99.5472 67.9584 96.3083 69.4281 92.4272 69.4281C90.6579 69.4281 89.0456 69.157 87.5902 68.6147C86.1633 68.044 84.9362 67.2592 83.9089 66.2604C82.8816 65.2331 82.0825 64.0203 81.5118 62.622C80.9411 61.2237 80.6557 59.6684 80.6557 57.9562C80.6557 56.1869 80.9553 54.5745 81.5546 53.1191C82.1539 51.6352 82.9957 50.3653 84.0801 49.3094C85.1931 48.225 86.4915 47.3832 87.9754 46.7839C89.4879 46.1846 91.1431 45.885 92.9409 45.885C95.9658 45.885 98.3201 46.6983 100.004 48.3249C101.687 49.9515 102.529 52.2345 102.529 55.1738C102.529 55.6304 102.458 55.9158 102.315 56.0299C102.173 56.1155 101.773 56.1583 101.117 56.1583H87.3334C87.2192 56.4152 87.1621 56.886 87.1621 57.5709C87.1621 60.3675 87.7614 62.5792 88.96 64.2058C90.1871 65.8324 91.8422 66.6457 93.9254 66.6457C95.124 66.6457 96.3083 66.3746 97.4783 65.8324C98.6768 65.2902 99.8326 64.5197 100.946 63.5209L102.144 65.0191ZM93.8398 53.7612C94.9813 53.7612 95.709 53.7041 96.0229 53.59C96.3653 53.4473 96.5366 53.1334 96.5366 52.6483C96.5366 51.3926 96.1798 50.3653 95.4664 49.5663C94.753 48.7672 93.8541 48.3677 92.7697 48.3677C91.5426 48.3677 90.4439 48.8814 89.4736 49.9087C88.5319 50.9075 87.9184 52.1917 87.633 53.7612H93.8398ZM107.493 69H106.166V61.2094H107.964C108.449 63.2641 109.148 64.7622 110.061 65.704C110.975 66.6457 112.159 67.1166 113.614 67.1166C114.67 67.1166 115.483 66.9025 116.054 66.4745C116.653 66.0179 116.953 65.4043 116.953 64.6338C116.953 63.8348 116.596 63.0643 115.883 62.3223C115.17 61.5518 114.014 60.7385 112.416 59.8824C110.247 58.7124 108.692 57.5566 107.75 56.4152C106.808 55.2451 106.337 53.9324 106.337 52.4771C106.337 51.5353 106.509 50.665 106.851 49.8659C107.222 49.0383 107.707 48.3249 108.306 47.7256C108.934 47.1264 109.676 46.6698 110.532 46.3559C111.388 46.0134 112.316 45.8422 113.315 45.8422C114.199 45.8422 115.07 45.9706 115.926 46.2274C116.81 46.4843 117.581 46.841 118.237 47.2976L119.008 46.2703H120.121V52.7339H118.451C117.795 51.1073 117.11 49.9373 116.397 49.2238C115.712 48.5104 114.87 48.1537 113.871 48.1537C113.072 48.1537 112.43 48.3677 111.945 48.7958C111.488 49.2238 111.26 49.7946 111.26 50.508C111.26 51.307 111.602 52.0633 112.287 52.7767C113.001 53.4901 114.171 54.2749 115.797 55.131C116.939 55.7588 117.923 56.3724 118.751 56.9716C119.579 57.5709 120.249 58.1845 120.763 58.8123C121.276 59.4116 121.647 60.0536 121.876 60.7385C122.133 61.3949 122.261 62.1083 122.261 62.8788C122.261 63.8776 122.076 64.7765 121.705 65.5756C121.334 66.3746 120.806 67.0595 120.121 67.6302C119.436 68.201 118.608 68.6433 117.638 68.9572C116.696 69.2711 115.64 69.4281 114.47 69.4281C113.243 69.4281 112.102 69.2711 111.046 68.9572C109.99 68.6148 109.12 68.1296 108.435 67.5018L107.493 69ZM124.65 48.6674V46.7411C126.363 46.256 127.79 45.5283 128.931 44.558C130.101 43.5592 130.971 42.4178 131.542 41.1336H133.725V46.3131H138.648V48.6674H133.725V61.8087C133.725 63.578 133.911 64.8336 134.282 65.5756C134.681 66.3175 135.338 66.6885 136.251 66.6885C137.364 66.6885 138.206 66.1748 138.776 65.1475L139.675 66.3889C138.876 68.415 136.993 69.4281 134.025 69.4281C132.056 69.4281 130.515 68.9715 129.402 68.0583C128.317 67.1451 127.775 65.8609 127.775 64.2058V48.6674H124.65ZM149.342 59.6256C149.342 60.6815 149.485 61.666 149.77 62.5792C150.084 63.4638 150.498 64.2343 151.012 64.8907C151.525 65.547 152.139 66.0607 152.852 66.4317C153.566 66.8026 154.35 66.9881 155.207 66.9881C156.919 66.9881 158.217 66.2034 159.102 64.6338C159.987 63.0643 160.429 60.7528 160.429 57.6993C160.429 54.7315 159.987 52.4771 159.102 50.9361C158.246 49.3665 156.947 48.5817 155.207 48.5817C154.179 48.5817 153.223 48.8671 152.339 49.4379C151.482 49.9801 150.812 50.7506 150.327 51.7494C149.67 53.1191 149.342 54.8456 149.342 56.9288V59.6256ZM149.257 49.2666H149.428C150.17 48.1822 151.126 47.3547 152.296 46.7839C153.466 46.1846 154.793 45.885 156.277 45.885C157.789 45.885 159.187 46.1989 160.472 46.8267C161.784 47.426 162.912 48.2536 163.853 49.3094C164.824 50.3653 165.58 51.6067 166.122 53.0335C166.664 54.4604 166.935 55.9871 166.935 57.6137C166.935 59.3259 166.636 60.9097 166.036 62.3651C165.466 63.792 164.667 65.0334 163.639 66.0892C162.64 67.1451 161.456 67.9727 160.086 68.5719C158.745 69.1712 157.318 69.4709 155.806 69.4709C154.236 69.4709 152.752 69.1712 151.354 68.5719C149.984 67.9441 148.886 67.1308 148.058 66.132L144.805 69H143.349V43.5307C143.349 40.8482 143.164 39.0076 142.793 38.0088C142.707 37.809 142.607 37.6378 142.493 37.4951C142.379 37.3524 142.208 37.2383 141.98 37.1527C141.78 37.0385 141.495 36.9529 141.124 36.8958C140.753 36.8102 140.267 36.7246 139.668 36.639V35.1836L149.257 33.4714V49.2666ZM188.245 53.3332C188.245 52.1917 188.217 51.2928 188.16 50.6364C188.102 49.9515 187.945 49.4379 187.689 49.0954C187.432 48.7244 187.047 48.4819 186.533 48.3677C186.048 48.225 185.377 48.1109 184.521 48.0253V46.3131H194.195V59.2831C194.195 61.0239 194.209 62.3937 194.238 63.3925C194.295 64.3627 194.381 65.0904 194.495 65.5756C194.58 65.9465 194.68 66.2462 194.794 66.4745C194.909 66.6742 195.094 66.8455 195.351 66.9881C195.608 67.1023 195.95 67.1879 196.378 67.245C196.835 67.2735 197.42 67.2878 198.133 67.2878V68.9572L189.615 69.4709L189.144 65.6612H188.973C188.231 66.8597 187.189 67.7872 185.848 68.4435C184.507 69.0999 183.009 69.4281 181.353 69.4281C178.3 69.4281 175.974 68.3436 174.376 66.1748C173.149 64.5197 172.535 62.1654 172.535 59.1119V53.3332C172.535 52.1631 172.507 51.25 172.45 50.5936C172.393 49.9087 172.236 49.3951 171.979 49.0526C171.751 48.7102 171.394 48.4819 170.909 48.3677C170.424 48.225 169.753 48.1109 168.897 48.0253V46.3131H178.485V58.427C178.485 61.3093 178.842 63.4067 179.556 64.7194C180.269 66.0036 181.41 66.6457 182.98 66.6457C184.664 66.6457 185.962 65.8752 186.875 64.3342C187.789 62.8503 188.245 60.6672 188.245 57.7849V53.3332ZM209.519 62.3651C209.519 63.4781 209.562 64.3627 209.647 65.0191C209.761 65.6469 209.975 66.132 210.289 66.4745C210.603 66.8169 211.06 67.0452 211.659 67.1594C212.258 67.245 213.057 67.2878 214.056 67.2878V69H199.759V67.2878C200.615 67.2307 201.3 67.1451 201.814 67.0309C202.327 66.9168 202.713 66.6885 202.97 66.3461C203.226 66.0036 203.383 65.5185 203.44 64.8907C203.526 64.2343 203.569 63.3639 203.569 62.2795V57.0572C203.569 55.288 203.526 53.8754 203.44 52.8195C203.355 51.7636 203.169 50.9503 202.884 50.3796C202.599 49.8088 202.185 49.4379 201.643 49.2666C201.129 49.0669 200.444 48.967 199.588 48.967V47.4688L208.149 45.885L208.834 50.8076H209.005C209.776 49.2952 210.789 48.0966 212.044 47.212C213.3 46.3273 214.627 45.885 216.025 45.885C217.11 45.885 217.994 46.1561 218.679 46.6983C219.364 47.2405 219.707 47.9254 219.707 48.753C219.707 49.6662 219.435 50.4367 218.893 51.0645C218.38 51.6923 217.666 52.0062 216.753 52.0062C216.325 52.0062 215.94 51.9206 215.597 51.7494C215.255 51.5781 214.941 51.3926 214.655 51.1929C214.399 50.9646 214.128 50.7648 213.842 50.5936C213.585 50.3939 213.314 50.294 213.029 50.294C212.487 50.294 211.973 50.6507 211.488 51.3641C211.003 52.0775 210.603 53.0335 210.289 54.2321C210.061 55.0882 209.876 56.0585 209.733 57.1429C209.59 58.1987 209.519 59.2546 209.519 60.3105V62.3651ZM230.624 62.3651C230.624 63.4781 230.667 64.3627 230.752 65.0191C230.867 65.6469 231.081 66.132 231.394 66.4745C231.708 66.8169 232.165 67.0452 232.764 67.1594C233.363 67.245 234.163 67.2878 235.161 67.2878V69H220.864V67.2878C221.72 67.2307 222.405 67.1451 222.919 67.0309C223.433 66.9168 223.818 66.6885 224.075 66.3461C224.332 66.0036 224.488 65.5185 224.546 64.8907C224.631 64.2343 224.674 63.3639 224.674 62.2795V57.0572C224.674 55.288 224.631 53.8754 224.546 52.8195C224.46 51.7636 224.274 50.9503 223.989 50.3796C223.704 49.8088 223.29 49.4379 222.748 49.2666C222.234 49.0669 221.549 48.967 220.693 48.967V47.4688L229.254 45.885L229.939 50.8076H230.11C230.881 49.2952 231.894 48.0966 233.149 47.212C234.405 46.3273 235.732 45.885 237.13 45.885C238.215 45.885 239.099 46.1561 239.784 46.6983C240.469 47.2405 240.812 47.9254 240.812 48.753C240.812 49.6662 240.541 50.4367 239.998 51.0645C239.485 51.6923 238.771 52.0062 237.858 52.0062C237.43 52.0062 237.045 51.9206 236.702 51.7494C236.36 51.5781 236.046 51.3926 235.761 51.1929C235.504 50.9646 235.233 50.7648 234.947 50.5936C234.69 50.3939 234.419 50.294 234.134 50.294C233.592 50.294 233.078 50.6507 232.593 51.3641C232.108 52.0775 231.708 53.0335 231.394 54.2321C231.166 55.0882 230.981 56.0585 230.838 57.1429C230.695 58.1987 230.624 59.2546 230.624 60.3105V62.3651Z" fill="#EFEFEF"/>
<path d="M253.511 69.6803C253.511 70.5504 253.343 71.3629 253.007 72.1176C252.672 72.8724 252.211 73.5328 251.624 74.0989C251.047 74.6545 250.371 75.0948 249.595 75.4198C248.819 75.7448 247.986 75.9072 247.095 75.9072C246.214 75.9072 245.386 75.7448 244.61 75.4198C243.845 75.0948 243.174 74.6493 242.598 74.0832C242.021 73.5171 241.565 72.8567 241.23 72.1019C240.905 71.3471 240.742 70.5452 240.742 69.6961C240.742 68.8469 240.905 68.045 241.23 67.2902C241.565 66.5354 242.016 65.875 242.582 65.3089C243.159 64.7429 243.83 64.2973 244.595 63.9724C245.371 63.6474 246.199 63.4849 247.079 63.4849C247.97 63.4849 248.804 63.6474 249.579 63.9724C250.366 64.2973 251.047 64.7376 251.624 65.2932C252.211 65.8488 252.672 66.504 253.007 67.2588C253.343 68.0136 253.511 68.8207 253.511 69.6803ZM252.567 69.6803C252.567 68.9465 252.42 68.2599 252.127 67.6204C251.844 66.9705 251.451 66.4097 250.947 65.9379C250.455 65.4557 249.873 65.0783 249.202 64.8058C248.542 64.5332 247.834 64.3969 247.079 64.3969C246.324 64.3969 245.617 64.5384 244.956 64.8215C244.306 65.094 243.735 65.4714 243.242 65.9536C242.76 66.4359 242.378 67.0019 242.095 67.6519C241.822 68.2913 241.686 68.9727 241.686 69.6961C241.686 70.4194 241.822 71.106 242.095 71.756C242.378 72.3954 242.76 72.9563 243.242 73.4385C243.735 73.9207 244.312 74.3033 244.972 74.5864C245.633 74.8589 246.34 74.9952 247.095 74.9952C247.85 74.9952 248.557 74.8589 249.218 74.5864C249.878 74.3033 250.455 73.9207 250.947 73.4385C251.451 72.9563 251.844 72.3954 252.127 71.756C252.42 71.106 252.567 70.4142 252.567 69.6803ZM250.146 70.954C249.988 71.6459 249.674 72.2067 249.202 72.6366C248.741 73.0664 248.101 73.2813 247.284 73.2813C246.697 73.2813 246.167 73.2026 245.695 73.0454C245.224 72.8777 244.82 72.647 244.485 72.3535C244.149 72.0495 243.892 71.6878 243.714 71.2685C243.536 70.8492 243.447 70.3775 243.447 69.8533C243.447 69.3082 243.541 68.8103 243.73 68.3595C243.919 67.9087 244.186 67.5208 244.532 67.1959C244.878 66.8709 245.292 66.6193 245.774 66.4411C246.256 66.2629 246.791 66.1738 247.378 66.1738C247.745 66.1738 248.086 66.2367 248.4 66.3625C248.725 66.4883 249.081 66.6927 249.469 66.9757L249.627 66.2681H249.973L250.051 68.328H249.627C249.49 67.8982 249.228 67.5628 248.84 67.3217C248.463 67.0806 248.007 66.96 247.472 66.96C246.77 66.96 246.225 67.2116 245.837 67.7148C245.46 68.2075 245.271 68.8994 245.271 69.7904C245.271 70.671 245.46 71.3419 245.837 71.8032C246.225 72.2539 246.78 72.4793 247.504 72.4793C248.594 72.4793 249.291 71.9709 249.595 70.954H250.146Z" fill="#2B2C32"/>
<path d="M253.511 69.6803C253.511 70.5504 253.343 71.3629 253.007 72.1176C252.672 72.8724 252.211 73.5328 251.624 74.0989C251.047 74.6545 250.371 75.0948 249.595 75.4198C248.819 75.7448 247.986 75.9072 247.095 75.9072C246.214 75.9072 245.386 75.7448 244.61 75.4198C243.845 75.0948 243.174 74.6493 242.598 74.0832C242.021 73.5171 241.565 72.8567 241.23 72.1019C240.905 71.3471 240.742 70.5452 240.742 69.6961C240.742 68.8469 240.905 68.045 241.23 67.2902C241.565 66.5354 242.016 65.875 242.582 65.3089C243.159 64.7429 243.83 64.2973 244.595 63.9724C245.371 63.6474 246.199 63.4849 247.079 63.4849C247.97 63.4849 248.804 63.6474 249.579 63.9724C250.366 64.2973 251.047 64.7376 251.624 65.2932C252.211 65.8488 252.672 66.504 253.007 67.2588C253.343 68.0136 253.511 68.8207 253.511 69.6803ZM252.567 69.6803C252.567 68.9465 252.42 68.2599 252.127 67.6204C251.844 66.9705 251.451 66.4097 250.947 65.9379C250.455 65.4557 249.873 65.0783 249.202 64.8058C248.542 64.5332 247.834 64.3969 247.079 64.3969C246.324 64.3969 245.617 64.5384 244.956 64.8215C244.306 65.094 243.735 65.4714 243.242 65.9536C242.76 66.4359 242.378 67.0019 242.095 67.6519C241.822 68.2913 241.686 68.9727 241.686 69.6961C241.686 70.4194 241.822 71.106 242.095 71.756C242.378 72.3954 242.76 72.9563 243.242 73.4385C243.735 73.9207 244.312 74.3033 244.972 74.5864C245.633 74.8589 246.34 74.9952 247.095 74.9952C247.85 74.9952 248.557 74.8589 249.218 74.5864C249.878 74.3033 250.455 73.9207 250.947 73.4385C251.451 72.9563 251.844 72.3954 252.127 71.756C252.42 71.106 252.567 70.4142 252.567 69.6803ZM250.146 70.954C249.988 71.6459 249.674 72.2067 249.202 72.6366C248.741 73.0664 248.101 73.2813 247.284 73.2813C246.697 73.2813 246.167 73.2026 245.695 73.0454C245.224 72.8777 244.82 72.647 244.485 72.3535C244.149 72.0495 243.892 71.6878 243.714 71.2685C243.536 70.8492 243.447 70.3775 243.447 69.8533C243.447 69.3082 243.541 68.8103 243.73 68.3595C243.919 67.9087 244.186 67.5208 244.532 67.1959C244.878 66.8709 245.292 66.6193 245.774 66.4411C246.256 66.2629 246.791 66.1738 247.378 66.1738C247.745 66.1738 248.086 66.2367 248.4 66.3625C248.725 66.4883 249.081 66.6927 249.469 66.9757L249.627 66.2681H249.973L250.051 68.328H249.627C249.49 67.8982 249.228 67.5628 248.84 67.3217C248.463 67.0806 248.007 66.96 247.472 66.96C246.77 66.96 246.225 67.2116 245.837 67.7148C245.46 68.2075 245.271 68.8994 245.271 69.7904C245.271 70.671 245.46 71.3419 245.837 71.8032C246.225 72.2539 246.78 72.4793 247.504 72.4793C248.594 72.4793 249.291 71.9709 249.595 70.954H250.146Z" fill="#EFEFEF"/>
</g>
</svg>
