<svg width="288" height="112" viewBox="0 0 288 112" fill="none" xmlns="http://www.w3.org/2000/svg">
<mask id="mask0_1071:175" style="mask-type:alpha" maskUnits="userSpaceOnUse" x="0" y="0" width="288" height="112">
<rect width="288" height="112" fill="#EFEFEF"/>
</mask>
<g mask="url(#mask0_1071:175)">
<mask id="mask1_1071:175" style="mask-type:alpha" maskUnits="userSpaceOnUse" x="39" y="37" width="213" height="41">
<path fill-rule="evenodd" clip-rule="evenodd" d="M39 37H252V78H39V37ZM195 46H220V54H195V46ZM220 61H195V70H220V61Z" fill="#C4C4C4"/>
</mask>
<g mask="url(#mask1_1071:175)">
<path d="M83.702 38.7444V76.8555H74.4185V53.9997L65.8951 76.8555H58.4031L49.8254 53.9454V76.8555H40.542V38.7444H51.5084L62.2034 65.129L72.7898 38.7444H83.702ZM104.873 77.2355C101.29 77.2355 97.9964 76.4031 94.9924 74.7382C92.0246 73.0733 89.654 70.757 87.8805 67.7892C86.1433 64.7851 85.2746 61.4192 85.2746 57.6913C85.2746 53.9635 86.1433 50.6156 87.8805 47.6478C89.654 44.68 92.0246 42.3637 94.9924 40.6988C97.9964 39.0339 101.29 38.2015 104.873 38.2015C108.456 38.2015 111.732 39.0339 114.699 40.6988C117.703 42.3637 120.056 44.68 121.757 47.6478C123.494 50.6156 124.363 53.9635 124.363 57.6913C124.363 61.4192 123.494 64.7851 121.757 67.7892C120.02 70.757 117.667 73.0733 114.699 74.7382C111.732 76.4031 108.456 77.2355 104.873 77.2355ZM104.873 68.7664C107.913 68.7664 110.338 67.753 112.148 65.7262C113.994 63.6994 114.917 61.0211 114.917 57.6913C114.917 54.3254 113.994 51.6471 112.148 49.6565C110.338 47.6297 107.913 46.6163 104.873 46.6163C101.797 46.6163 99.3356 47.6116 97.4897 49.6022C95.6801 51.5928 94.7753 54.2892 94.7753 57.6913C94.7753 61.0573 95.6801 63.7537 97.4897 65.7805C99.3356 67.7711 101.797 68.7664 104.873 68.7664ZM145.434 76.8555L137.508 62.4688H135.282V76.8555H125.999V38.7444H141.58C144.584 38.7444 147.135 39.2692 149.235 40.3188C151.37 41.3684 152.963 42.8161 154.012 44.6619C155.062 46.4716 155.587 48.4984 155.587 50.7423C155.587 53.2758 154.863 55.5379 153.415 57.5285C152.003 59.5191 149.904 60.9306 147.117 61.763L155.912 76.8555H145.434ZM135.282 55.8998H141.037C142.738 55.8998 144.005 55.4836 144.837 54.6511C145.706 53.8187 146.14 52.6424 146.14 51.1223C146.14 49.6746 145.706 48.5346 144.837 47.7021C144.005 46.8697 142.738 46.4535 141.037 46.4535H135.282V55.8998ZM191.979 76.8555H182.696L167.169 53.3482V76.8555H157.885V38.7444H167.169L182.696 62.3602V38.7444H191.979V76.8555ZM204.463 46.182V53.8911H216.895V61.0573H204.463V69.4178H218.524V76.8555H195.18V38.7444H218.524V46.182H204.463ZM240.458 76.8555L232.531 62.4688H230.306V76.8555H221.022V38.7444H236.603C239.607 38.7444 242.159 39.2692 244.258 40.3188C246.393 41.3684 247.986 42.8161 249.035 44.6619C250.085 46.4716 250.61 48.4984 250.61 50.7423C250.61 53.2758 249.886 55.5379 248.438 57.5285C247.027 59.5191 244.927 60.9306 242.141 61.763L250.935 76.8555H240.458ZM230.306 55.8998H236.06C237.761 55.8998 239.028 55.4836 239.86 54.6511C240.729 53.8187 241.163 52.6424 241.163 51.1223C241.163 49.6746 240.729 48.5346 239.86 47.7021C239.028 46.8697 237.761 46.4535 236.06 46.4535H230.306V55.8998Z" fill="#EFEFEF"/>
</g>
</g>
</svg>
