<svg width="288" height="112" viewBox="0 0 288 112" fill="none" xmlns="http://www.w3.org/2000/svg">
<mask id="mask0_1071:172" style="mask-type:alpha" maskUnits="userSpaceOnUse" x="0" y="0" width="288" height="112">
<rect width="288" height="112" fill="#EFEFEF"/>
</mask>
<g mask="url(#mask0_1071:172)">
<path d="M72.1141 46.723H53.592L57.5719 47.8966C60.4803 48.764 63.1847 51.4173 63.1847 54.4278C63.1847 57.5913 61.5008 61.7754 57.5209 61.7754H57.4699C48.6425 61.8264 43.2849 54.1727 41.7541 47.5394C40.3254 40.8041 42.2644 30.7011 50.4284 28.8132C57.5719 27.1804 66.0421 33.3544 64.2052 40.2938H68.7464C71.1446 40.2428 72.7774 37.7936 71.8589 35.5995C69.3587 29.8337 61.807 26.313 53.643 26.364C41.499 26.415 34.0494 34.7321 34.1514 45.1412C34.2024 55.5503 41.55 64.0205 53.694 64.0205C65.4298 64.0205 71.0425 57.9995 72.1141 55.2442C72.1141 55.1932 72.1141 55.1932 72.1141 55.1932V46.723ZM107.071 49.7335L96.3043 27.3335H87.426C88.8547 30.1909 88.8547 33.5585 87.477 36.4159L79.8232 52.3358C77.9353 56.2137 75.5371 59.8364 72.6287 63.051H79.2109C79.1089 60.3977 79.6191 57.7954 80.7417 55.4483L81.507 53.9175H100.233C101.458 56.826 102.274 59.8875 102.58 63.051H115.592C112.224 58.969 109.367 54.4788 107.071 49.7335ZM82.5786 51.6724L90.9467 34.477L99.2127 51.6724H82.5786ZM150.582 57.9485L145.684 51.2642C144.918 50.2437 143.949 49.5294 142.826 49.0702C148.286 48.4068 152.521 44.2228 152.521 38.559C152.521 35.4465 151.246 32.6401 149.205 30.5991C147.164 28.5581 144.357 27.3335 141.296 27.3335H117.569C117.569 27.3335 119.712 29.6296 119.712 35.2424V55.0911C119.712 59.6323 118.283 62.0305 117.722 62.7959L117.569 63.051H129.815L129.662 62.7959C129.101 62.0305 127.672 59.6323 127.672 55.0911V53.3563C127.672 50.5499 129.254 49.0191 132.06 49.0191C134.101 49.0191 135.173 50.1927 136.142 51.2132L142.418 60.3467C143.643 62.0305 145.582 63.051 147.674 63.051H156.45C154.154 61.7754 152.113 60.0405 150.582 57.9485ZM135.938 46.774H127.672V29.5786H135.938C140.683 29.5786 144.51 33.8137 144.51 38.559C144.51 43.3043 140.683 46.774 135.938 46.774ZM180.496 61.3672C171.668 61.3672 167.178 54.1216 165.749 47.4374C164.321 40.7531 165.443 30.6501 173.607 28.8642C180.802 27.2314 189.221 33.4055 187.333 40.3449H191.976C194.374 40.3449 195.956 37.7936 194.987 35.5485C192.487 29.8847 184.935 26.364 176.873 26.364C164.729 26.364 157.279 34.6301 157.279 45.0392C157.279 55.4483 164.627 64.0205 176.771 64.0205C185.802 64.0205 192.64 59.2241 195.191 52.5399C195.191 52.4888 188.354 61.3672 180.496 61.3672ZM208.842 55.0911V35.2424C208.842 29.6296 210.986 27.3335 210.986 27.3335H198.791C198.791 27.3335 200.934 29.6296 200.934 35.2424V55.0911C200.934 59.6323 199.505 62.0305 198.944 62.7959L198.791 63.051H210.986L210.781 62.7959C210.271 62.0305 208.842 59.6323 208.842 55.0911ZM247.39 49.7335L236.623 27.3335H227.745C229.174 30.1909 229.174 33.5585 227.796 36.4159L220.142 52.3358C218.254 56.2137 215.856 59.8364 212.948 63.051H219.53C219.428 60.3977 219.938 57.7954 221.061 55.4483L221.826 53.9175H240.552C241.777 56.826 242.593 59.8875 242.899 63.051H255.911C252.543 58.969 249.686 54.4788 247.39 49.7335ZM222.897 51.6724L231.266 34.477L239.532 51.6724H222.897Z" fill="#2B2C32"/>
<path d="M72.1141 46.723H53.592L57.5719 47.8966C60.4803 48.764 63.1847 51.4173 63.1847 54.4278C63.1847 57.5913 61.5008 61.7754 57.5209 61.7754H57.4699C48.6425 61.8264 43.2849 54.1727 41.7541 47.5394C40.3254 40.8041 42.2644 30.7011 50.4284 28.8132C57.5719 27.1804 66.0421 33.3544 64.2052 40.2938H68.7464C71.1446 40.2428 72.7774 37.7936 71.8589 35.5995C69.3587 29.8337 61.807 26.313 53.643 26.364C41.499 26.415 34.0494 34.7321 34.1514 45.1412C34.2024 55.5503 41.55 64.0205 53.694 64.0205C65.4298 64.0205 71.0425 57.9995 72.1141 55.2442C72.1141 55.1932 72.1141 55.1932 72.1141 55.1932V46.723ZM107.071 49.7335L96.3043 27.3335H87.426C88.8547 30.1909 88.8547 33.5585 87.477 36.4159L79.8232 52.3358C77.9353 56.2137 75.5371 59.8364 72.6287 63.051H79.2109C79.1089 60.3977 79.6191 57.7954 80.7417 55.4483L81.507 53.9175H100.233C101.458 56.826 102.274 59.8875 102.58 63.051H115.592C112.224 58.969 109.367 54.4788 107.071 49.7335ZM82.5786 51.6724L90.9467 34.477L99.2127 51.6724H82.5786ZM150.582 57.9485L145.684 51.2642C144.918 50.2437 143.949 49.5294 142.826 49.0702C148.286 48.4068 152.521 44.2228 152.521 38.559C152.521 35.4465 151.246 32.6401 149.205 30.5991C147.164 28.5581 144.357 27.3335 141.296 27.3335H117.569C117.569 27.3335 119.712 29.6296 119.712 35.2424V55.0911C119.712 59.6323 118.283 62.0305 117.722 62.7959L117.569 63.051H129.815L129.662 62.7959C129.101 62.0305 127.672 59.6323 127.672 55.0911V53.3563C127.672 50.5499 129.254 49.0191 132.06 49.0191C134.101 49.0191 135.173 50.1927 136.142 51.2132L142.418 60.3467C143.643 62.0305 145.582 63.051 147.674 63.051H156.45C154.154 61.7754 152.113 60.0405 150.582 57.9485ZM135.938 46.774H127.672V29.5786H135.938C140.683 29.5786 144.51 33.8137 144.51 38.559C144.51 43.3043 140.683 46.774 135.938 46.774ZM180.496 61.3672C171.668 61.3672 167.178 54.1216 165.749 47.4374C164.321 40.7531 165.443 30.6501 173.607 28.8642C180.802 27.2314 189.221 33.4055 187.333 40.3449H191.976C194.374 40.3449 195.956 37.7936 194.987 35.5485C192.487 29.8847 184.935 26.364 176.873 26.364C164.729 26.364 157.279 34.6301 157.279 45.0392C157.279 55.4483 164.627 64.0205 176.771 64.0205C185.802 64.0205 192.64 59.2241 195.191 52.5399C195.191 52.4888 188.354 61.3672 180.496 61.3672ZM208.842 55.0911V35.2424C208.842 29.6296 210.986 27.3335 210.986 27.3335H198.791C198.791 27.3335 200.934 29.6296 200.934 35.2424V55.0911C200.934 59.6323 199.505 62.0305 198.944 62.7959L198.791 63.051H210.986L210.781 62.7959C210.271 62.0305 208.842 59.6323 208.842 55.0911ZM247.39 49.7335L236.623 27.3335H227.745C229.174 30.1909 229.174 33.5585 227.796 36.4159L220.142 52.3358C218.254 56.2137 215.856 59.8364 212.948 63.051H219.53C219.428 60.3977 219.938 57.7954 221.061 55.4483L221.826 53.9175H240.552C241.777 56.826 242.593 59.8875 242.899 63.051H255.911C252.543 58.969 249.686 54.4788 247.39 49.7335ZM222.897 51.6724L231.266 34.477L239.532 51.6724H222.897Z" fill="#EFEFEF"/>
<path d="M69.7109 83.4846H65.0816L64.1233 85.6624H62.8416L66.7864 76.9512H68.0184L71.9758 85.6624H70.6691L69.7109 83.4846ZM69.2753 82.489L67.3962 78.2206L65.5171 82.489H69.2753ZM86.2424 76.9512V85.6624H85.2219L79.9953 79.1664V85.6624H78.7508V76.9512H79.7713L84.9979 83.4472V76.9512H86.2424ZM94.3253 76.9512H97.9964C98.9173 76.9512 99.7345 77.1338 100.448 77.4988C101.161 77.8638 101.713 78.3782 102.103 79.0419C102.501 79.6973 102.7 80.4523 102.7 81.3068C102.7 82.1613 102.501 82.9204 102.103 83.5841C101.713 84.2395 101.161 84.7498 100.448 85.1148C99.7345 85.4798 98.9173 85.6624 97.9964 85.6624H94.3253V76.9512ZM97.9218 84.5797C98.627 84.5797 99.245 84.4428 99.776 84.169C100.315 83.8952 100.73 83.5136 101.02 83.0241C101.311 82.5264 101.456 81.9539 101.456 81.3068C101.456 80.6597 101.311 80.0914 101.02 79.6019C100.73 79.1041 100.315 78.7184 99.776 78.4446C99.245 78.1708 98.627 78.0339 97.9218 78.0339H95.5698V84.5797H97.9218ZM122.297 76.9512C123.425 76.9512 124.313 77.2209 124.96 77.7601C125.607 78.2994 125.931 79.0419 125.931 79.9877C125.931 80.9335 125.607 81.676 124.96 82.2152C124.313 82.7545 123.425 83.0241 122.297 83.0241H120.144V85.6624H118.9V76.9512H122.297ZM122.26 81.9415C123.048 81.9415 123.649 81.7755 124.064 81.4437C124.479 81.1035 124.686 80.6182 124.686 79.9877C124.686 79.3572 124.479 78.876 124.064 78.5441C123.649 78.204 123.048 78.0339 122.26 78.0339H120.144V81.9415H122.26ZM138.347 83.4846H133.718L132.76 85.6624H131.478L135.423 76.9512H136.655L140.612 85.6624H139.306L138.347 83.4846ZM137.912 82.489L136.033 78.2206L134.154 82.489H137.912ZM153.211 85.6624L151.332 82.9868C151.1 83.0034 150.917 83.0117 150.785 83.0117H148.632V85.6624H147.387V76.9512H150.785C151.913 76.9512 152.801 77.2209 153.448 77.7601C154.095 78.2994 154.418 79.0419 154.418 79.9877C154.418 80.6597 154.252 81.2321 153.921 81.705C153.589 82.1779 153.116 82.5222 152.502 82.7379L154.568 85.6624H153.211ZM150.747 81.9539C151.535 81.9539 152.137 81.7838 152.552 81.4437C152.967 81.1035 153.174 80.6182 153.174 79.9877C153.174 79.3572 152.967 78.876 152.552 78.5441C152.137 78.204 151.535 78.0339 150.747 78.0339H148.632V81.9539H150.747ZM163.513 78.0339H160.526V76.9512H167.731V78.0339H164.745V85.6624H163.513V78.0339ZM182.054 76.9512V85.6624H181.033L175.807 79.1664V85.6624H174.562V76.9512H175.583L180.809 83.4472V76.9512H182.054ZM196.459 84.5797V85.6624H190.137V76.9512H196.284V78.0339H191.381V80.7095H195.749V81.7672H191.381V84.5797H196.459ZM209.773 85.6624L207.894 82.9868C207.662 83.0034 207.479 83.0117 207.347 83.0117H205.194V85.6624H203.949V76.9512H207.347C208.475 76.9512 209.363 77.2209 210.01 77.7601C210.657 78.2994 210.98 79.0419 210.98 79.9877C210.98 80.6597 210.814 81.2321 210.483 81.705C210.151 82.1779 209.678 82.5222 209.064 82.7379L211.13 85.6624H209.773ZM207.309 81.9539C208.097 81.9539 208.699 81.7838 209.114 81.4437C209.528 81.1035 209.736 80.6182 209.736 79.9877C209.736 79.3572 209.528 78.876 209.114 78.5441C208.699 78.204 208.097 78.0339 207.309 78.0339H205.194V81.9539H207.309ZM221.005 85.7619C220.35 85.7619 219.715 85.6624 219.101 85.4632C218.495 85.2558 218.018 84.9904 217.67 84.6668L218.13 83.6961C218.462 83.9948 218.885 84.2395 219.4 84.4304C219.922 84.6129 220.458 84.7041 221.005 84.7041C221.727 84.7041 222.266 84.5838 222.623 84.3432C222.98 84.0944 223.158 83.7666 223.158 83.3601C223.158 83.0615 223.058 82.8209 222.859 82.6384C222.669 82.4475 222.428 82.3024 222.138 82.2028C221.855 82.1032 221.453 81.9912 220.93 81.8668C220.275 81.7092 219.744 81.5515 219.338 81.3939C218.939 81.2363 218.595 80.9957 218.305 80.6721C218.023 80.3403 217.882 79.8964 217.882 79.3406C217.882 78.876 218.002 78.457 218.242 78.0837C218.491 77.7104 218.865 77.4117 219.362 77.1877C219.86 76.9637 220.478 76.8517 221.217 76.8517C221.731 76.8517 222.237 76.9181 222.735 77.0508C223.233 77.1835 223.66 77.3744 224.017 77.6232L223.606 78.6188C223.241 78.3865 222.851 78.2123 222.436 78.0961C222.021 77.9717 221.615 77.9095 221.217 77.9095C220.511 77.9095 219.981 78.0381 219.624 78.2952C219.275 78.5524 219.101 78.8843 219.101 79.2908C219.101 79.5895 219.201 79.8342 219.4 80.025C219.599 80.2075 219.844 80.3527 220.134 80.4606C220.433 80.5601 220.835 80.668 221.341 80.7841C221.997 80.9418 222.523 81.0994 222.922 81.257C223.32 81.4146 223.66 81.6552 223.942 81.9788C224.232 82.3024 224.378 82.7379 224.378 83.2855C224.378 83.7418 224.253 84.1607 224.004 84.5424C223.755 84.9157 223.378 85.2144 222.872 85.4384C222.366 85.6541 221.743 85.7619 221.005 85.7619Z" fill="#2B2C32"/>
<path d="M69.7109 83.4846H65.0816L64.1233 85.6624H62.8416L66.7864 76.9512H68.0184L71.9758 85.6624H70.6691L69.7109 83.4846ZM69.2753 82.489L67.3962 78.2206L65.5171 82.489H69.2753ZM86.2424 76.9512V85.6624H85.2219L79.9953 79.1664V85.6624H78.7508V76.9512H79.7713L84.9979 83.4472V76.9512H86.2424ZM94.3253 76.9512H97.9964C98.9173 76.9512 99.7345 77.1338 100.448 77.4988C101.161 77.8638 101.713 78.3782 102.103 79.0419C102.501 79.6973 102.7 80.4523 102.7 81.3068C102.7 82.1613 102.501 82.9204 102.103 83.5841C101.713 84.2395 101.161 84.7498 100.448 85.1148C99.7345 85.4798 98.9173 85.6624 97.9964 85.6624H94.3253V76.9512ZM97.9218 84.5797C98.627 84.5797 99.245 84.4428 99.776 84.169C100.315 83.8952 100.73 83.5136 101.02 83.0241C101.311 82.5264 101.456 81.9539 101.456 81.3068C101.456 80.6597 101.311 80.0914 101.02 79.6019C100.73 79.1041 100.315 78.7184 99.776 78.4446C99.245 78.1708 98.627 78.0339 97.9218 78.0339H95.5698V84.5797H97.9218ZM122.297 76.9512C123.425 76.9512 124.313 77.2209 124.96 77.7601C125.607 78.2994 125.931 79.0419 125.931 79.9877C125.931 80.9335 125.607 81.676 124.96 82.2152C124.313 82.7545 123.425 83.0241 122.297 83.0241H120.144V85.6624H118.9V76.9512H122.297ZM122.26 81.9415C123.048 81.9415 123.649 81.7755 124.064 81.4437C124.479 81.1035 124.686 80.6182 124.686 79.9877C124.686 79.3572 124.479 78.876 124.064 78.5441C123.649 78.204 123.048 78.0339 122.26 78.0339H120.144V81.9415H122.26ZM138.347 83.4846H133.718L132.76 85.6624H131.478L135.423 76.9512H136.655L140.612 85.6624H139.306L138.347 83.4846ZM137.912 82.489L136.033 78.2206L134.154 82.489H137.912ZM153.211 85.6624L151.332 82.9868C151.1 83.0034 150.917 83.0117 150.785 83.0117H148.632V85.6624H147.387V76.9512H150.785C151.913 76.9512 152.801 77.2209 153.448 77.7601C154.095 78.2994 154.418 79.0419 154.418 79.9877C154.418 80.6597 154.252 81.2321 153.921 81.705C153.589 82.1779 153.116 82.5222 152.502 82.7379L154.568 85.6624H153.211ZM150.747 81.9539C151.535 81.9539 152.137 81.7838 152.552 81.4437C152.967 81.1035 153.174 80.6182 153.174 79.9877C153.174 79.3572 152.967 78.876 152.552 78.5441C152.137 78.204 151.535 78.0339 150.747 78.0339H148.632V81.9539H150.747ZM163.513 78.0339H160.526V76.9512H167.731V78.0339H164.745V85.6624H163.513V78.0339ZM182.054 76.9512V85.6624H181.033L175.807 79.1664V85.6624H174.562V76.9512H175.583L180.809 83.4472V76.9512H182.054ZM196.459 84.5797V85.6624H190.137V76.9512H196.284V78.0339H191.381V80.7095H195.749V81.7672H191.381V84.5797H196.459ZM209.773 85.6624L207.894 82.9868C207.662 83.0034 207.479 83.0117 207.347 83.0117H205.194V85.6624H203.949V76.9512H207.347C208.475 76.9512 209.363 77.2209 210.01 77.7601C210.657 78.2994 210.98 79.0419 210.98 79.9877C210.98 80.6597 210.814 81.2321 210.483 81.705C210.151 82.1779 209.678 82.5222 209.064 82.7379L211.13 85.6624H209.773ZM207.309 81.9539C208.097 81.9539 208.699 81.7838 209.114 81.4437C209.528 81.1035 209.736 80.6182 209.736 79.9877C209.736 79.3572 209.528 78.876 209.114 78.5441C208.699 78.204 208.097 78.0339 207.309 78.0339H205.194V81.9539H207.309ZM221.005 85.7619C220.35 85.7619 219.715 85.6624 219.101 85.4632C218.495 85.2558 218.018 84.9904 217.67 84.6668L218.13 83.6961C218.462 83.9948 218.885 84.2395 219.4 84.4304C219.922 84.6129 220.458 84.7041 221.005 84.7041C221.727 84.7041 222.266 84.5838 222.623 84.3432C222.98 84.0944 223.158 83.7666 223.158 83.3601C223.158 83.0615 223.058 82.8209 222.859 82.6384C222.669 82.4475 222.428 82.3024 222.138 82.2028C221.855 82.1032 221.453 81.9912 220.93 81.8668C220.275 81.7092 219.744 81.5515 219.338 81.3939C218.939 81.2363 218.595 80.9957 218.305 80.6721C218.023 80.3403 217.882 79.8964 217.882 79.3406C217.882 78.876 218.002 78.457 218.242 78.0837C218.491 77.7104 218.865 77.4117 219.362 77.1877C219.86 76.9637 220.478 76.8517 221.217 76.8517C221.731 76.8517 222.237 76.9181 222.735 77.0508C223.233 77.1835 223.66 77.3744 224.017 77.6232L223.606 78.6188C223.241 78.3865 222.851 78.2123 222.436 78.0961C222.021 77.9717 221.615 77.9095 221.217 77.9095C220.511 77.9095 219.981 78.0381 219.624 78.2952C219.275 78.5524 219.101 78.8843 219.101 79.2908C219.101 79.5895 219.201 79.8342 219.4 80.025C219.599 80.2075 219.844 80.3527 220.134 80.4606C220.433 80.5601 220.835 80.668 221.341 80.7841C221.997 80.9418 222.523 81.0994 222.922 81.257C223.32 81.4146 223.66 81.6552 223.942 81.9788C224.232 82.3024 224.378 82.7379 224.378 83.2855C224.378 83.7418 224.253 84.1607 224.004 84.5424C223.755 84.9157 223.378 85.2144 222.872 85.4384C222.366 85.6541 221.743 85.7619 221.005 85.7619Z" fill="#EFEFEF"/>
</g>
</svg>
