<svg width="24" height="24" viewBox="0 0 24 24" fill="none" xmlns="http://www.w3.org/2000/svg">
<g clip-path="url(#clip0)">
<path fill-rule="evenodd" clip-rule="evenodd" d="M12.0011 0C8.74212 0 8.3331 0.01425 7.05306 0.072498C5.77554 0.131004 4.90356 0.333252 4.14054 0.630006C3.35128 0.93651 2.68178 1.34651 2.01477 2.01377C1.34726 2.68078 0.93726 3.35029 0.629754 4.13928C0.332256 4.90254 0.12975 5.77482 0.072252 7.0518C0.015 8.33184 0 8.7411 0 12.0001C0 15.2591 0.014502 15.6669 0.072498 16.9469C0.13125 18.2245 0.333504 19.0964 0.630006 19.8595C0.936762 20.6487 1.34677 21.3182 2.01402 21.9852C2.68078 22.6528 3.35029 23.0638 4.13904 23.3702C4.90254 23.667 5.77482 23.8693 7.0521 23.9278C8.33208 23.986 8.74086 24.0002 11.9996 24.0002C15.2589 24.0002 15.6667 23.986 16.9467 23.9278C18.2242 23.8693 19.0972 23.667 19.8607 23.3702C20.6497 23.0638 21.3182 22.6528 21.985 21.9852C22.6525 21.3182 23.0625 20.6487 23.37 19.8597C23.665 19.0964 23.8675 18.2242 23.9275 16.9472C23.985 15.6671 24 15.2591 24 12.0001C24 8.7411 23.985 8.33208 23.9275 7.0521C23.8675 5.77458 23.665 4.90254 23.37 4.13952C23.0625 3.35029 22.6525 2.68078 21.985 2.01377C21.3175 1.34626 20.65 0.936258 19.8599 0.630006C19.0949 0.333252 18.2224 0.131004 16.9449 0.072498C15.6649 0.01425 15.2574 0 11.9974 0H12.0011ZM10.9246 2.16252C11.2441 2.16202 11.6006 2.16252 12.0011 2.16252C15.2051 2.16252 15.5849 2.17402 16.8502 2.23153C18.0202 2.28502 18.6552 2.48053 19.0782 2.64478C19.6382 2.86228 20.0375 3.12228 20.4572 3.54229C20.8772 3.96228 21.1372 4.3623 21.3552 4.92228C21.5195 5.3448 21.7152 5.97984 21.7685 7.14984C21.826 8.41482 21.8385 8.79486 21.8385 11.9974C21.8385 15.1999 21.826 15.5799 21.7685 16.8449C21.715 18.0149 21.5195 18.6499 21.3552 19.0724C21.1377 19.6325 20.8772 20.0312 20.4572 20.4509C20.0372 20.8709 19.6385 21.131 19.0782 21.3485C18.6557 21.5135 18.0202 21.7085 16.8502 21.762C15.5852 21.8195 15.2051 21.832 12.0011 21.832C8.79684 21.832 8.4171 21.8195 7.15206 21.762C5.98206 21.708 5.34708 21.5125 4.92378 21.3482C4.3638 21.1307 3.96378 20.8707 3.54379 20.4507C3.12379 20.0307 2.86378 19.6317 2.64578 19.0714C2.48153 18.649 2.28577 18.0139 2.23252 16.8439C2.17502 15.5789 2.16352 15.1989 2.16352 11.9944C2.16352 8.78982 2.17502 8.41182 2.23252 7.14684C2.28602 5.97684 2.48153 5.3418 2.64578 4.9188C2.86328 4.35882 3.12379 3.9588 3.54379 3.53879C3.96378 3.11878 4.3638 2.85878 4.92378 2.64077C5.34678 2.47577 5.98206 2.28077 7.15206 2.22702C8.25906 2.17702 8.68812 2.16202 10.9246 2.15952V2.16252ZM18.4067 4.15506C17.6117 4.15506 16.9667 4.79928 16.9667 5.59458C16.9667 6.38958 17.6117 7.03458 18.4067 7.03458C19.2017 7.03458 19.8467 6.38958 19.8467 5.59458C19.8467 4.79952 19.2017 4.15452 18.4067 4.15452V4.15506ZM12.0011 5.83758C8.59782 5.83758 5.83854 8.59686 5.83854 12.0001C5.83854 15.4034 8.59782 18.1615 12.0011 18.1615C15.4044 18.1615 18.1627 15.4034 18.1627 12.0001C18.1627 8.59686 15.4042 5.83758 12.0009 5.83758H12.0011ZM12.0011 8.0001C14.2102 8.0001 16.0012 9.79086 16.0012 12.0001C16.0012 14.2091 14.2102 16.0001 12.0011 16.0001C9.79188 16.0001 8.00106 14.2091 8.00106 12.0001C8.00106 9.79086 9.79188 8.0001 12.0011 8.0001Z" fill="#2A2A31"/>
</g>
<defs>
<clipPath id="clip0">
<rect width="24" height="24" fill="white"/>
</clipPath>
</defs>
</svg>
