<svg width="188" height="43" viewBox="0 0 188 43" fill="none" xmlns="http://www.w3.org/2000/svg">
<path d="M176 18.0958V1.80396H2V40.3877H176V30.7418L186 21.0958" stroke="#2B2C32" stroke-width="3.5"/>
<path d="M16.3011 12.4498H25.3567C26.6755 12.4498 27.8184 12.5927 28.7855 12.8784C29.7526 13.1642 30.5549 13.5781 31.1923 14.1203C31.8297 14.6551 32.3023 15.3109 32.61 16.0875C32.925 16.8641 33.0825 17.7396 33.0825 18.714C33.0825 19.6299 32.9287 20.4761 32.621 21.2527C32.3133 22.0293 31.8407 22.7034 31.2033 23.2748C30.5732 23.839 29.7746 24.2822 28.8075 24.6046C27.8404 24.9196 26.6975 25.0772 25.3787 25.0772L19.7848 25.0662V29.627H16.3011V12.4498ZM25.4446 22.055C26.104 22.055 26.6791 21.978 27.17 21.8242C27.6682 21.663 28.0822 21.4395 28.4119 21.1538C28.7489 20.8607 28.998 20.5091 29.1592 20.0988C29.3277 19.6812 29.4119 19.2196 29.4119 18.714C29.4119 17.6957 29.0786 16.9044 28.4119 16.3402C27.7525 15.7688 26.7634 15.483 25.4446 15.483H19.7848V22.055H25.4446ZM36.896 12.4498H45.6329C46.9517 12.4498 48.0947 12.589 49.0618 12.8675C50.0289 13.1385 50.8311 13.5342 51.4685 14.0544C52.1059 14.5745 52.5785 15.2083 52.8862 15.9556C53.2013 16.7029 53.3588 17.5491 53.3588 18.4943C53.3588 19.1317 53.2819 19.7398 53.128 20.3186C52.9741 20.89 52.736 21.4175 52.4137 21.9011C52.0986 22.3847 51.6993 22.8169 51.2158 23.1979C50.7322 23.5716 50.1644 23.8829 49.5123 24.132L53.2489 29.627H48.9848L45.7538 24.7475H45.6549L40.3798 24.7365V29.627H36.896V12.4498ZM45.7209 21.7253C46.3802 21.7253 46.9554 21.6483 47.4463 21.4945C47.9445 21.3406 48.3584 21.1245 48.6881 20.8461C49.0251 20.5677 49.2742 20.2306 49.4354 19.835C49.6039 19.4321 49.6882 18.9851 49.6882 18.4943C49.6882 17.5345 49.3585 16.7945 48.6991 16.2743C48.0397 15.7468 47.047 15.483 45.7209 15.483H40.3798V21.7253H45.7209ZM57.491 12.4498H72.1184V15.505H60.9747V18.9338H70.8436V21.8022H60.9747V26.5828H72.3492V29.627H57.491V12.4498ZM77.0199 24.5167C77.6427 24.8684 78.2727 25.1871 78.9101 25.4728C79.5549 25.7512 80.2216 25.9893 80.9103 26.1871C81.599 26.3776 82.3207 26.5242 83.0753 26.6267C83.8373 26.7293 84.6468 26.7806 85.504 26.7806C86.5371 26.7806 87.4163 26.7146 88.1416 26.5828C88.8669 26.4436 89.4567 26.2567 89.911 26.0223C90.3725 25.7805 90.7059 25.4948 90.911 25.1651C91.1235 24.8354 91.2297 24.4764 91.2297 24.0881C91.2297 23.4653 90.9697 22.9744 90.4495 22.6154C89.9293 22.2491 89.127 22.0659 88.0427 22.0659C87.5665 22.0659 87.0646 22.0989 86.5371 22.1649C86.0096 22.2235 85.4747 22.2894 84.9326 22.3627C84.3977 22.4359 83.8666 22.5055 83.339 22.5715C82.8189 22.6301 82.328 22.6594 81.8664 22.6594C81.0971 22.6594 80.3571 22.5605 79.6465 22.3627C78.9431 22.1649 78.3167 21.8681 77.7672 21.4725C77.225 21.0769 76.7928 20.5823 76.4704 19.9889C76.148 19.3954 75.9868 18.7031 75.9868 17.9118C75.9868 17.4429 76.0491 16.9777 76.1737 16.5161C76.3056 16.0545 76.5107 15.6149 76.7891 15.1973C77.0748 14.7724 77.4412 14.3804 77.8881 14.0214C78.335 13.6551 78.8735 13.34 79.5036 13.0763C80.141 12.8125 80.8737 12.6074 81.7016 12.4608C82.5368 12.307 83.4856 12.23 84.5479 12.23C85.3172 12.23 86.0902 12.274 86.8668 12.3619C87.6434 12.4425 88.398 12.5597 89.1307 12.7136C89.8707 12.8675 90.5813 13.0543 91.2627 13.2741C91.9441 13.4866 92.5778 13.7247 93.164 13.9884L91.6364 16.8018C91.1528 16.5893 90.6326 16.3952 90.0758 16.2194C89.519 16.0362 88.9365 15.8787 88.3284 15.7468C87.7203 15.6149 87.0902 15.5123 86.4382 15.4391C85.7934 15.3585 85.1341 15.3182 84.46 15.3182C83.5002 15.3182 82.709 15.3878 82.0862 15.527C81.4708 15.6662 80.9799 15.8457 80.6136 16.0655C80.2472 16.278 79.9908 16.5197 79.8443 16.7908C79.7051 17.0546 79.6355 17.3183 79.6355 17.5821C79.6355 18.095 79.8663 18.5162 80.3278 18.8459C80.7894 19.1683 81.4928 19.3295 82.4379 19.3295C82.8189 19.3295 83.2548 19.3038 83.7457 19.2526C84.2439 19.1939 84.7641 19.1317 85.3062 19.0657C85.8557 18.9998 86.4125 18.9412 86.9767 18.8899C87.5482 18.8313 88.1013 18.802 88.6361 18.802C89.6472 18.802 90.5411 18.9155 91.3177 19.1427C92.1016 19.3698 92.7573 19.6958 93.2848 20.1207C93.8124 20.5384 94.2117 21.0476 94.4827 21.6483C94.7538 22.2418 94.8894 22.9085 94.8894 23.6485C94.8894 24.6376 94.6586 25.5204 94.197 26.297C93.7428 27.0663 93.0907 27.7184 92.2408 28.2532C91.3983 28.7807 90.3799 29.1837 89.1856 29.4621C87.9914 29.7332 86.6616 29.8687 85.1963 29.8687C84.2292 29.8687 83.2841 29.8065 82.361 29.6819C81.4378 29.5647 80.5513 29.3962 79.7014 29.1764C78.8589 28.9492 78.0529 28.6818 77.2836 28.3741C76.5217 28.0591 75.8147 27.7147 75.1626 27.3411L77.0199 24.5167ZM99.5271 24.5167C100.15 24.8684 100.78 25.1871 101.417 25.4728C102.062 25.7512 102.729 25.9893 103.417 26.1871C104.106 26.3776 104.828 26.5242 105.582 26.6267C106.344 26.7293 107.154 26.7806 108.011 26.7806C109.044 26.7806 109.923 26.7146 110.649 26.5828C111.374 26.4436 111.964 26.2567 112.418 26.0223C112.88 25.7805 113.213 25.4948 113.418 25.1651C113.631 24.8354 113.737 24.4764 113.737 24.0881C113.737 23.4653 113.477 22.9744 112.957 22.6154C112.436 22.2491 111.634 22.0659 110.55 22.0659C110.074 22.0659 109.572 22.0989 109.044 22.1649C108.517 22.2235 107.982 22.2894 107.44 22.3627C106.905 22.4359 106.374 22.5055 105.846 22.5715C105.326 22.6301 104.835 22.6594 104.374 22.6594C103.604 22.6594 102.864 22.5605 102.154 22.3627C101.45 22.1649 100.824 21.8681 100.274 21.4725C99.7322 21.0769 99.2999 20.5823 98.9776 19.9889C98.6552 19.3954 98.494 18.7031 98.494 17.9118C98.494 17.4429 98.5563 16.9777 98.6809 16.5161C98.8127 16.0545 99.0179 15.6149 99.2963 15.1973C99.582 14.7724 99.9483 14.3804 100.395 14.0214C100.842 13.6551 101.381 13.34 102.011 13.0763C102.648 12.8125 103.381 12.6074 104.209 12.4608C105.044 12.307 105.993 12.23 107.055 12.23C107.824 12.23 108.597 12.274 109.374 12.3619C110.151 12.4425 110.905 12.5597 111.638 12.7136C112.378 12.8675 113.089 13.0543 113.77 13.2741C114.451 13.4866 115.085 13.7247 115.671 13.9884L114.144 16.8018C113.66 16.5893 113.14 16.3952 112.583 16.2194C112.026 16.0362 111.444 15.8787 110.836 15.7468C110.228 15.6149 109.597 15.5123 108.945 15.4391C108.301 15.3585 107.641 15.3182 106.967 15.3182C106.007 15.3182 105.216 15.3878 104.593 15.527C103.978 15.6662 103.487 15.8457 103.121 16.0655C102.754 16.278 102.498 16.5197 102.351 16.7908C102.212 17.0546 102.143 17.3183 102.143 17.5821C102.143 18.095 102.373 18.5162 102.835 18.8459C103.297 19.1683 104 19.3295 104.945 19.3295C105.326 19.3295 105.762 19.3038 106.253 19.2526C106.751 19.1939 107.271 19.1317 107.813 19.0657C108.363 18.9998 108.92 18.9412 109.484 18.8899C110.055 18.8313 110.608 18.802 111.143 18.802C112.154 18.802 113.048 18.9155 113.825 19.1427C114.609 19.3698 115.265 19.6958 115.792 20.1207C116.32 20.5384 116.719 21.0476 116.99 21.6483C117.261 22.2418 117.397 22.9085 117.397 23.6485C117.397 24.6376 117.166 25.5204 116.704 26.297C116.25 27.0663 115.598 27.7184 114.748 28.2532C113.905 28.7807 112.887 29.1837 111.693 29.4621C110.499 29.7332 109.169 29.8687 107.704 29.8687C106.736 29.8687 105.791 29.8065 104.868 29.6819C103.945 29.5647 103.058 29.3962 102.209 29.1764C101.366 28.9492 100.56 28.6818 99.7908 28.3741C99.0289 28.0591 98.3219 27.7147 97.6698 27.3411L99.5271 24.5167ZM120.221 20.9889C120.221 19.6921 120.459 18.5052 120.935 17.4282C121.411 16.3512 122.078 15.4281 122.935 14.6588C123.8 13.8822 124.833 13.2814 126.035 12.8565C127.243 12.4315 128.581 12.2191 130.046 12.2191C131.504 12.2191 132.837 12.4315 134.046 12.8565C135.255 13.2814 136.288 13.8822 137.145 14.6588C138.01 15.4281 138.68 16.3512 139.156 17.4282C139.633 18.5052 139.871 19.6921 139.871 20.9889C139.871 22.2931 139.633 23.491 139.156 24.5826C138.68 25.667 138.01 26.6011 137.145 27.385C136.288 28.169 135.255 28.7807 134.046 29.2203C132.837 29.6526 131.504 29.8687 130.046 29.8687C128.581 29.8687 127.243 29.6526 126.035 29.2203C124.833 28.7807 123.8 28.169 122.935 27.385C122.078 26.6011 121.411 25.667 120.935 24.5826C120.459 23.491 120.221 22.2931 120.221 20.9889ZM123.705 20.9889C123.705 21.8755 123.862 22.6741 124.177 23.3847C124.5 24.0954 124.943 24.7035 125.507 25.209C126.079 25.7072 126.749 26.0919 127.518 26.363C128.295 26.6341 129.137 26.7696 130.046 26.7696C130.954 26.7696 131.793 26.6341 132.563 26.363C133.339 26.0919 134.01 25.7072 134.574 25.209C135.138 24.7035 135.581 24.0954 135.903 23.3847C136.226 22.6741 136.387 21.8755 136.387 20.9889C136.387 20.1024 136.226 19.3075 135.903 18.6042C135.581 17.9008 135.138 17.3074 134.574 16.8238C134.01 16.3329 133.339 15.9593 132.563 15.7028C131.793 15.4464 130.954 15.3182 130.046 15.3182C129.137 15.3182 128.295 15.4464 127.518 15.7028C126.749 15.9593 126.079 16.3329 125.507 16.8238C124.943 17.3074 124.5 17.9008 124.177 18.6042C123.862 19.3075 123.705 20.1024 123.705 20.9889ZM143.717 12.4498H147.201L157.905 18.0547V12.4498H161.389V29.627H157.905V21.7472L147.201 16.1754V29.627H143.717V12.4498Z" fill="#2B2C32"/>
</svg>
