<svg width="90" height="112" viewBox="0 0 90 112" fill="none" xmlns="http://www.w3.org/2000/svg">
<mask id="mask0_1235:372" style="mask-type:alpha" maskUnits="userSpaceOnUse" x="0" y="0" width="90" height="112">
<rect width="90" height="112" fill="#C4C4C4"/>
</mask>
<g mask="url(#mask0_1235:372)">
<path d="M41.3953 99.76L43.0753 65.2L31.5553 97.84L24.8353 95.2L39.7153 63.76L16.6753 89.68L11.3953 84.4L37.3153 61.36L5.87531 76.24L3.23531 69.52L35.8753 58L1.31531 59.68V52.48L35.8753 54.4L3.23531 42.64L5.87531 36.16L37.3153 51.04L11.3953 27.76L16.6753 22.72L39.7153 48.4L24.8353 17.2L31.5553 14.32L43.0753 47.2L41.3953 12.4H48.5953L46.6753 46.96L58.4353 14.32L64.9153 17.2L50.0353 48.4L73.3153 22.72L78.3553 27.76L52.6753 51.04L83.8753 36.16L86.7553 42.64L53.8753 54.4L88.6753 52.48V59.68L53.8753 58L86.7553 69.52L83.8753 76.24L52.6753 61.36L78.3553 84.4L73.3153 89.68L50.0353 63.76L64.9153 95.2L58.4353 97.84L46.6753 65.2L48.5953 99.76H41.3953Z" fill="#EFEFEF"/>
</g>
</svg>
