<svg width="24" height="24" viewBox="0 0 24 24" fill="none" xmlns="http://www.w3.org/2000/svg">
<g clip-path="url(#clip0)">
<path fill-rule="evenodd" clip-rule="evenodd" d="M11.6533 7.276L11.7054 8.13385L10.8384 8.0288C7.6822 7.62615 4.92493 6.2606 2.58386 3.96715L1.43933 2.82918L1.14453 3.66952C0.52024 5.5428 0.91909 7.5211 2.21969 8.85165C2.91335 9.58695 2.75727 9.692 1.56072 9.2543C1.14452 9.11425 0.78036 9.0092 0.745675 9.06175C0.62429 9.1843 1.04048 10.7775 1.36996 11.4077C1.82084 12.2831 2.73993 13.1409 3.74572 13.6486L4.59545 14.0513L3.58965 14.0688C2.61854 14.0688 2.58386 14.0863 2.68791 14.454C3.03473 15.5919 4.4047 16.7999 5.93075 17.3251L7.0059 17.6928L6.06945 18.253C4.68216 19.0583 3.05207 19.5135 1.42199 19.5485C0.64163 19.566 0 19.6361 0 19.6886C0 19.8637 2.11564 20.844 3.34687 21.2292C7.0406 22.3671 11.4279 21.8769 14.7228 19.9336C17.0639 18.5506 19.4049 15.802 20.4974 13.1409C21.087 11.7228 21.6766 9.13175 21.6766 7.88875C21.6766 7.0834 21.7287 6.9784 22.6998 6.0155C23.2721 5.45525 23.8097 4.8425 23.9137 4.66743C24.0871 4.3348 24.0697 4.3348 23.1854 4.63242C21.7113 5.15765 21.5033 5.0876 22.2316 4.29978C22.7691 3.73955 23.4108 2.72414 23.4108 2.42652C23.4108 2.374 23.1507 2.46153 22.8559 2.6191C22.5437 2.79417 21.85 3.05677 21.3298 3.21434L20.3934 3.51196L19.5436 2.93422C19.0754 2.6191 18.4165 2.26895 18.0697 2.16391C17.1853 1.91881 15.8327 1.95382 15.035 2.23394C12.8673 3.02176 11.4973 5.0526 11.6533 7.276Z" fill="#2A2A31"/>
</g>
<defs>
<clipPath id="clip0">
<rect width="24" height="24" fill="white"/>
</clipPath>
</defs>
</svg>
